<svg xmlns="http://www.w3.org/2000/svg" width="75" height="76" viewBox="0 0 75 76">
    <defs>
        <clipPath id="clip-path">
            <path id="Rectangle_1131" fill="#042d47" stroke="#707070" d="M0 0H75V76H0z" transform="translate(.052 -.355)"/>
        </clipPath>
        <style>
            .cls-3{fill:#042d47}.cls-4{fill:#9b1c20}
        </style>
    </defs>
    <g id="Mask_Group_6" clip-path="url(#clip-path)" transform="translate(-.052 .355)">
        <g id="_039-delivery" transform="translate(-.045 14.349)">
            <g id="Group_4905">
                <g id="Group_4904">
                    <path id="Path_9895" d="M69.77 42.715l-1.943-7.771a1.175 1.175 0 0 0 .93-1.149v-1.252a4.939 4.939 0 0 0-4.934-4.934h-8.849v-2.584a2.43 2.43 0 0 0-2.428-2.425H7.439a2.43 2.43 0 0 0-2.428 2.428v21.3a1.175 1.175 0 0 0 2.349 0v-21.3a.078.078 0 0 1 .078-.078h45.108a.078.078 0 0 1 .078.078v21.3a1.175 1.175 0 0 0 2.349 0v-1.334h13.864a3.844 3.844 0 0 1 3.65 2.663h-3.652a1.175 1.175 0 0 0-1.175 1.175v2.506a3.685 3.685 0 0 0 3.681 3.681h1.331v5.168H69.6a7.437 7.437 0 0 0-14.061 0h-.566v-8.85a1.175 1.175 0 0 0-2.349 0v8.849H28.253a7.437 7.437 0 0 0-14.061 0H7.439a.078.078 0 0 1-.078-.078v-2.585h5.09a1.175 1.175 0 1 0 0-2.349H1.175a1.175 1.175 0 1 0 0 2.349h3.837v2.584a2.43 2.43 0 0 0 2.428 2.428h6.345v.078a7.439 7.439 0 0 0 14.879 0v-.078h26.469v.078a7.439 7.439 0 0 0 14.879 0v-.078h3.839a1.175 1.175 0 0 0 1.175-1.175V48.831a6.2 6.2 0 0 0-5.256-6.116zm-14.8-12.757h8.849a2.587 2.587 0 0 1 2.584 2.584v.078H54.974zm0 12.686V34.97h10.442l1.919 7.674zM21.222 67.7a5.09 5.09 0 1 1 5.09-5.09 5.1 5.1 0 0 1-5.09 5.09zm41.348 0a5.09 5.09 0 1 1 5.09-5.09 5.1 5.1 0 0 1-5.09 5.09zm10.1-15.036h-1.329a1.333 1.333 0 0 1-1.331-1.331v-1.327h2.663v2.663z" class="cls-3" transform="translate(0 -22.597)"/>
                </g>
            </g>
            <g id="Group_4907" transform="translate(18.795 37.589)">
                <g id="Group_4906">
                    <path id="Path_9896" d="M33.242 84.226a2.428 2.428 0 1 0 2.428 2.428 2.43 2.43 0 0 0-2.428-2.428z" class="cls-3" transform="translate(-30.814 -84.226)"/>
                </g>
            </g>
            <g id="Group_4909" transform="translate(60.143 37.589)">
                <g id="Group_4908">
                    <path id="Path_9897" d="M101.033 84.226a2.428 2.428 0 1 0 2.428 2.428 2.43 2.43 0 0 0-2.428-2.428z" class="cls-3" transform="translate(-98.606 -84.226)"/>
                </g>
            </g>
            <g id="Group_4911" transform="translate(30.071 32.577)">
                <g id="Group_4910">
                    <path id="Path_9898" d="M68.019 76.009H50.477a1.175 1.175 0 1 0 0 2.349h17.542a1.175 1.175 0 0 0 0-2.349z" class="cls-3" transform="translate(-49.303 -76.009)"/>
                </g>
            </g>
            <g id="Group_4913" transform="translate(2.506 27.565)">
                <g id="Group_4912">
                    <path id="Path_9899" d="M20.319 67.791H5.283a1.175 1.175 0 1 0 0 2.349h15.036a1.175 1.175 0 1 0 0-2.349z" class="cls-3" transform="translate(-4.108 -67.791)"/>
                </g>
            </g>
            <g id="Group_4915" transform="translate(18.795 6.265)">
                <g id="Group_4914">
                    <path id="Path_9900" d="M42.013 32.868a11.2 11.2 0 1 0 11.2 11.2 11.211 11.211 0 0 0-11.2-11.2zm0 20.048a8.849 8.849 0 1 1 8.849-8.849 8.859 8.859 0 0 1-8.849 8.849z" class="cls-4" transform="translate(-30.814 -32.868)"/>
                </g>
            </g>
            <g id="Group_4917" transform="translate(28.818 11.277)">
                <g id="Group_4916">
                    <path id="Path_9901" d="M53.013 50.2L49.6 46.786V42.26a1.175 1.175 0 0 0-2.349 0v5.012a1.174 1.174 0 0 0 .344.831l3.759 3.759a1.175 1.175 0 0 0 1.659-1.662z" class="cls-4" transform="translate(-47.248 -41.086)"/>
                </g>
            </g>
        </g>
    </g>
</svg>
