<svg xmlns="http://www.w3.org/2000/svg" width="76" height="76" viewBox="0 0 76 76">
    <defs>
        <clipPath id="clip-path">
            <path id="Rectangle_1131" fill="#042d47" stroke="#707070" d="M0 0H76V76H0z" transform="translate(-.441 -.355)"/>
        </clipPath>
        <style>
            .cls-3{fill:#042d47}.cls-4{fill:#9b1c20}
        </style>
    </defs>
    <g id="Mask_Group_7" clip-path="url(#clip-path)" transform="translate(.441 .355)">
        <g id="_042-list" transform="translate(8.862 .261)">
            <g id="Group_4919">
                <g id="Group_4918">
                    <path id="Path_9902" d="M61.14 2.569h-2.649V1.2a1.2 1.2 0 0 0-2.409 0v1.369h-2.73V1.2a1.2 1.2 0 0 0-2.409 0v1.369h-2.73V1.2a1.2 1.2 0 0 0-2.409 0v1.369h-2.73V1.2a1.2 1.2 0 0 0-2.409 0v1.369h-2.73V1.2a1.2 1.2 0 0 0-2.409 0v1.369H32.8V1.2a1.2 1.2 0 0 0-2.409 0v1.369H27.66V1.2a1.2 1.2 0 0 0-2.409 0v1.369h-2.73V1.2a1.2 1.2 0 0 0-2.409 0v1.369h-2.649a3.778 3.778 0 0 0-3.773 3.774V64.15a3.778 3.778 0 0 0 3.774 3.774h24.407a1.2 1.2 0 1 0 0-2.409H17.463A1.366 1.366 0 0 1 16.1 64.15V6.343a1.366 1.366 0 0 1 1.365-1.365h2.649v1.365a1.2 1.2 0 0 0 2.409 0V4.978h2.73v1.365a1.2 1.2 0 0 0 2.409 0V4.978h2.73v1.365a1.2 1.2 0 0 0 2.409 0V4.978h2.73v1.365a1.2 1.2 0 0 0 2.409 0V4.978h2.73v1.365a1.2 1.2 0 0 0 2.409 0V4.978h2.73v1.365a1.2 1.2 0 0 0 2.409 0V4.978h2.73v1.365a1.2 1.2 0 0 0 2.409 0V4.978h2.73v1.365a1.2 1.2 0 0 0 2.409 0V4.978h2.649a1.366 1.366 0 0 1 1.365 1.365v38.538a1.2 1.2 0 1 0 2.409 0V6.343a3.778 3.778 0 0 0-3.779-3.774z" class="cls-3" transform="translate(-13.69)"/>
                </g>
            </g>
            <g id="Group_4921" transform="translate(30.831 47.53)">
                <g id="Group_4920">
                    <path id="Path_9903" d="M78.288 77.928a14.05 14.05 0 1 0 14.05 14.05 14.066 14.066 0 0 0-14.05-14.05zm0 25.692A11.642 11.642 0 1 1 89.93 91.978a11.655 11.655 0 0 1-11.642 11.642z" class="cls-4" transform="translate(-64.238 -77.928)"/>
                </g>
            </g>
            <g id="Group_4923" transform="translate(36.4 52.958)">
                <g id="Group_4922">
                    <path id="Path_9904" d="M90.272 92.946a1.2 1.2 0 0 0-1-.824l-4.449-.528-1.876-4.068a1.2 1.2 0 0 0-2.187 0l-1.88 4.069-4.449.528a1.2 1.2 0 0 0-.676 2.08l3.289 3.041-.873 4.394a1.2 1.2 0 0 0 1.77 1.286l3.909-2.188 3.909 2.188a1.2 1.2 0 0 0 1.77-1.286l-.873-4.394 3.288-3.044a1.2 1.2 0 0 0 .328-1.254zm-5.747 2.987a1.2 1.2 0 0 0-.364 1.119l.5 2.494-2.223-1.246a1.2 1.2 0 0 0-1.176 0l-2.219 1.242.5-2.494a1.2 1.2 0 0 0-.364-1.119l-1.867-1.727 2.525-.3a1.2 1.2 0 0 0 .952-.692l1.065-2.309 1.065 2.309a1.2 1.2 0 0 0 .952.692l2.525.3z" class="cls-4" transform="translate(-73.368 -86.827)"/>
                </g>
            </g>
            <g id="Group_4925" transform="translate(5.139 10.277)">
                <g id="Group_4924">
                    <path id="Path_9905" d="M61.857 16.849H23.319a1.2 1.2 0 1 0 0 2.409h38.538a1.2 1.2 0 1 0 0-2.409z" class="cls-3" transform="translate(-22.115 -16.849)"/>
                </g>
            </g>
            <g id="Group_4927" transform="translate(7.708 19.269)">
                <g id="Group_4926">
                    <path id="Path_9906" d="M35.239 35.446a1.2 1.2 0 0 0-1.2 1.2A2.649 2.649 0 1 1 31.385 34a1.2 1.2 0 1 0 0-2.409 5.058 5.058 0 1 0 5.058 5.058 1.2 1.2 0 0 0-1.204-1.203z" class="cls-3" transform="translate(-26.327 -31.592)"/>
                </g>
            </g>
            <g id="Group_4929" transform="translate(7.708 33.4)">
                <g id="Group_4928">
                    <path id="Path_9907" d="M35.239 58.614a1.2 1.2 0 0 0-1.2 1.2 2.649 2.649 0 1 1-2.649-2.649 1.2 1.2 0 1 0 0-2.409 5.058 5.058 0 1 0 5.058 5.058 1.2 1.2 0 0 0-1.209-1.2z" class="cls-3" transform="translate(-26.327 -54.76)"/>
                </g>
            </g>
            <g id="Group_4931" transform="translate(20.554 39.823)">
                <g id="Group_4930">
                    <path id="Path_9908" d="M69.147 65.291H48.593a1.2 1.2 0 1 0 0 2.409h20.554a1.2 1.2 0 1 0 0-2.409z" class="cls-3" transform="translate(-47.389 -65.291)"/>
                </g>
            </g>
            <g id="Group_4933" transform="translate(20.554 34.684)">
                <g id="Group_4932">
                    <path id="Path_9909" d="M64.008 56.866H48.593a1.2 1.2 0 1 0 0 2.409h15.415a1.2 1.2 0 1 0 0-2.409z" class="cls-3" transform="translate(-47.389 -56.866)"/>
                </g>
            </g>
            <g id="Group_4935" transform="translate(20.554 53.953)">
                <g id="Group_4934">
                    <path id="Path_9910" d="M55.016 88.459h-6.423a1.2 1.2 0 1 0 0 2.409h6.423a1.2 1.2 0 1 0 0-2.409z" class="cls-3" transform="translate(-47.389 -88.459)"/>
                </g>
            </g>
            <g id="Group_4937" transform="translate(20.554 48.815)">
                <g id="Group_4936">
                    <path id="Path_9911" d="M57.585 80.034h-8.992a1.2 1.2 0 0 0 0 2.409h8.992a1.2 1.2 0 0 0 0-2.409z" class="cls-3" transform="translate(-47.388 -80.034)"/>
                </g>
            </g>
            <g id="Group_4939" transform="translate(20.554 25.692)">
                <g id="Group_4938">
                    <path id="Path_9912" d="M69.147 42.123H48.593a1.2 1.2 0 1 0 0 2.409h20.554a1.2 1.2 0 1 0 0-2.409z" class="cls-3" transform="translate(-47.389 -42.123)"/>
                </g>
            </g>
            <g id="Group_4941" transform="translate(20.554 20.554)">
                <g id="Group_4940">
                    <path id="Path_9913" d="M64.008 33.7H48.593a1.2 1.2 0 1 0 0 2.409h15.415a1.2 1.2 0 1 0 0-2.409z" class="cls-3" transform="translate(-47.389 -33.698)"/>
                </g>
            </g>
            <g id="Group_4943" transform="translate(7.708 47.53)">
                <g id="Group_4942">
                    <path id="Path_9914" d="M35.239 81.782a1.2 1.2 0 0 0-1.2 1.2 2.649 2.649 0 1 1-2.649-2.649 1.2 1.2 0 1 0 0-2.409 5.058 5.058 0 1 0 5.058 5.058 1.2 1.2 0 0 0-1.209-1.2z" class="cls-3" transform="translate(-26.327 -77.928)"/>
                </g>
            </g>
        </g>
    </g>
</svg>
