<svg xmlns="http://www.w3.org/2000/svg" width="75" height="76" viewBox="0 0 75 76">
    <defs>
        <clipPath id="clip-path">
            <path id="Rectangle_1131" fill="#fff" stroke="#707070" d="M0 0H75V76H0z" transform="translate(0 -.355)"/>
        </clipPath>
        <style>
            .cls-3{fill:#9b1c20}.cls-4{fill:#042d47}
        </style>
    </defs>
    <g id="Mask_Group_8" clip-path="url(#clip-path)" transform="translate(0 .355)">
        <g id="_017-box" transform="translate(2.355 .261)">
            <g id="Group_4945" transform="translate(17.597 40.607)">
                <g id="Group_4944">
                    <path id="Path_9915" d="M50.8 66.577a17.512 17.512 0 1 0 17.513 17.512A17.532 17.532 0 0 0 50.8 66.577zm0 32.486a14.974 14.974 0 1 1 14.975-14.974A14.991 14.991 0 0 1 50.8 99.063z" class="cls-3" transform="translate(-33.289 -66.577)"/>
                </g>
            </g>
            <g id="Group_4947" transform="translate(24.365 51.436)">
                <g id="Group_4946">
                    <path id="Path_9916" d="M65.5 84.7a1.269 1.269 0 0 0-1.794 0L52.422 95.988l-5.871-5.871a1.269 1.269 0 0 0-1.794 1.794l6.768 6.768a1.269 1.269 0 0 0 1.794 0L65.5 86.5a1.269 1.269 0 0 0 0-1.8z" class="cls-3" transform="translate(-44.385 -84.331)"/>
                </g>
            </g>
            <g id="Group_4949">
                <g id="Group_4948">
                    <path id="Path_9917" d="M70.679 0H8.415a3.981 3.981 0 0 0-3.976 3.976v56.85A3.981 3.981 0 0 0 8.415 64.8h9.475a1.269 1.269 0 1 0 0-2.538H8.415a1.44 1.44 0 0 1-1.438-1.438V3.976a1.44 1.44 0 0 1 1.438-1.438h21.742v19.035a1.269 1.269 0 0 0 1.836 1.135l2.14-1.07 2.139 1.07a1.269 1.269 0 0 0 1.135 0l2.141-1.07 2.14 1.07a1.269 1.269 0 0 0 1.135 0l2.139-1.07 2.14 1.07a1.269 1.269 0 0 0 1.836-1.135V2.538H70.68a1.44 1.44 0 0 1 1.438 1.438v56.85a1.44 1.44 0 0 1-1.438 1.438H61.2a1.269 1.269 0 1 0 0 2.538h9.48a3.981 3.981 0 0 0 3.976-3.976V3.976A3.981 3.981 0 0 0 70.679 0zM46.4 19.519l-.871-.435a1.269 1.269 0 0 0-1.135 0l-2.139 1.07-2.14-1.07a1.269 1.269 0 0 0-1.135 0l-2.141 1.07-2.139-1.07a1.269 1.269 0 0 0-1.135 0l-.87.435V2.538H46.4v16.981z" class="cls-4" transform="translate(-4.439)"/>
                </g>
            </g>
            <g id="Group_4951" transform="translate(9.475 10.829)">
                <g id="Group_4950">
                    <path id="Path_9918" d="M30.261 24.894a1.269 1.269 0 0 0-1.794 0l-1.894 1.894v-7.765a1.269 1.269 0 0 0-2.538 0v7.765l-1.894-1.894a1.269 1.269 0 1 0-1.794 1.794l4.061 4.061a1.269 1.269 0 0 0 1.794 0l4.061-4.061a1.269 1.269 0 0 0-.002-1.794z" class="cls-4" transform="translate(-19.973 -17.754)"/>
                </g>
            </g>
            <g id="Group_4953" transform="translate(9.475 5.414)">
                <g id="Group_4952">
                    <path id="Path_9919" d="M29.364 8.877h-8.122a1.269 1.269 0 1 0 0 2.538h8.122a1.269 1.269 0 1 0 0-2.538z" class="cls-4" transform="translate(-19.973 -8.877)"/>
                </g>
            </g>
        </g>
    </g>
</svg>
