<svg xmlns="http://www.w3.org/2000/svg" width="78" height="78" viewBox="0 0 78 78">
    <defs>
        <clipPath id="clip-path">
            <path id="Rectangle_1131" fill="#042d47" stroke="#707070" d="M0 0H78V78H0z" transform="translate(.437 .04)"/>
        </clipPath>
        <style>
            .cls-3{fill:#042d47}.cls-4{fill:#9b1c20}
        </style>
    </defs>
    <g id="Mask_Group_10" clip-path="url(#clip-path)" transform="translate(-.437 -.04)">
        <g id="_016-world-wide" transform="translate(6.52 -.254)">
            <g id="Group_4981" transform="translate(0 13.066)">
                <g id="Group_4980">
                    <path id="Path_9933" d="M42.939 20.71a1.225 1.225 0 0 0-1.225 1.225v13.148H35.1a1.225 1.225 0 0 0 0 2.45h6.615v14.536H25.887c.04-1.739.164-3.469.373-5.158a1.225 1.225 0 0 0-2.431-.3 54.366 54.366 0 0 0-.392 5.459H12.83a29.971 29.971 0 0 1 5-15.437 1.225 1.225 0 1 0-2.04-1.356A32.587 32.587 0 1 0 42.939 20.71zM12.832 54.519h10.6a50.309 50.309 0 0 0 2.39 14.536h-8.56a29.932 29.932 0 0 1-4.43-14.536zM18.947 71.5h7.773a35.033 35.033 0 0 0 2.226 4.58 24.649 24.649 0 0 0 4.607 5.844A30.251 30.251 0 0 1 18.947 71.5zm22.767 11.85c-3.98-.507-7.724-3.48-10.652-8.5a31.944 31.944 0 0 1-1.689-3.346h12.341zm0-14.295h-13.3a47.3 47.3 0 0 1-2.525-14.536h15.825zm31.332-16.986h-10.6a50.31 50.31 0 0 0-2.39-14.536h8.56a29.934 29.934 0 0 1 4.43 14.536zm-6.115-16.986h-7.773a35.014 35.014 0 0 0-2.226-4.58 24.649 24.649 0 0 0-4.607-5.844 30.253 30.253 0 0 1 14.606 10.424zM44.164 23.238c3.98.507 7.724 3.48 10.652 8.5a31.958 31.958 0 0 1 1.684 3.345H44.164zm0 14.295h13.3a47.3 47.3 0 0 1 2.525 14.536H44.164zm24.448 31.522h-2.154a1.225 1.225 0 1 0 0 2.45h.473A30.25 30.25 0 0 1 52.3 81.938a23.306 23.306 0 0 0 3.762-4.449 1.225 1.225 0 1 0-2.044-1.351c-2.792 4.224-6.251 6.741-9.853 7.209V71.505h6.615a1.225 1.225 0 0 0 0-2.45h-6.616V54.519h15.828a50.836 50.836 0 0 1-.757 7.707 1.225 1.225 0 1 0 2.412.428 53.346 53.346 0 0 0 .8-8.135h10.6a29.931 29.931 0 0 1-4.435 14.536z" class="cls-3" transform="translate(-10.355 -20.71)"/>
                </g>
            </g>
            <g id="Group_4983" transform="translate(2.613)">
                <g id="Group_4982">
                    <path id="Path_9934" d="M27.481 0A13 13 0 0 0 14.5 12.985c0 4.869 3.159 8.755 6.215 12.512 2.234 2.747 4.543 5.587 5.608 8.781a1.225 1.225 0 0 0 2.324 0c1.065-3.194 3.374-6.034 5.608-8.781 3.056-3.758 6.215-7.643 6.215-12.512A13 13 0 0 0 27.481 0zm4.869 23.951a42.923 42.923 0 0 0-4.869 6.858 42.922 42.922 0 0 0-4.869-6.858c-2.914-3.583-5.666-6.968-5.666-10.967a10.535 10.535 0 0 1 21.07 0c0 3.999-2.752 7.384-5.665 10.967z" class="cls-4" transform="translate(-14.497)"/>
                </g>
            </g>
            <g id="Group_4985" transform="translate(10.453 5.227)">
                <g id="Group_4984">
                    <path id="Path_9935" d="M33.293 15.8v-3.6c.922.262 1.47.786 1.47 1.183a1.225 1.225 0 1 0 2.45 0c0-1.817-1.645-3.3-3.92-3.692v-.182a1.225 1.225 0 0 0-2.45 0V9.7c-2.274.4-3.92 1.876-3.92 3.692 0 2.559 2.117 3.584 3.92 4.2v3.6c-.922-.262-1.47-.786-1.47-1.183a1.225 1.225 0 0 0-2.45 0c0 1.817 1.645 3.3 3.92 3.692v.187a1.225 1.225 0 1 0 2.45 0V23.7c2.274-.4 3.92-1.876 3.92-3.692-.001-2.564-2.113-3.589-3.92-4.208zm-2.45-.848c-1.214-.525-1.47-.969-1.47-1.567 0-.4.548-.92 1.47-1.183zm2.45 6.23v-2.75c1.214.525 1.47.969 1.47 1.567 0 .401-.549.924-1.47 1.187z" class="cls-4" transform="translate(-26.923 -8.284)"/>
                </g>
            </g>
            <g id="Group_4987" transform="translate(44.425 58.798)">
                <g id="Group_4986">
                    <path id="Path_9936" d="M84.607 93.194a3.838 3.838 0 1 0 3.838 3.838 3.842 3.842 0 0 0-3.838-3.838zm0 5.226a1.388 1.388 0 1 1 1.388-1.388 1.39 1.39 0 0 1-1.388 1.389z" class="cls-3" transform="translate(-80.768 -93.194)"/>
                </g>
            </g>
        </g>
    </g>
</svg>
