<svg xmlns="http://www.w3.org/2000/svg" width="77" height="78" viewBox="0 0 77 78">
    <defs>
        <clipPath id="clip-path">
            <path id="Rectangle_1131" fill="#042d47" stroke="#707070" d="M0 0H77V78H0z" transform="translate(-.125 .04)"/>
        </clipPath>
        <style>
            .cls-3{fill:#042d47}.cls-4{fill:#9b1c20}
        </style>
    </defs>
    <g id="Mask_Group_11" clip-path="url(#clip-path)" transform="translate(.125 -.04)">
        <g id="_038-marketing" transform="translate(-.031 5.617)">
            <g id="Group_4989">
                <g id="Group_4988">
                    <path id="Path_9937" d="M73.524 8.805H4.08A4.084 4.084 0 0 0 0 12.885v58.333A4.084 4.084 0 0 0 4.08 75.3h69.444a4.084 4.084 0 0 0 4.08-4.08V12.885a4.084 4.084 0 0 0-4.08-4.08zm-54.253 2.6h50.173v2.951H19.271zm-5.555 0h2.951v2.951h-2.952zm-5.556 0h2.951v2.951H8.16zm-5.56 1.48a1.477 1.477 0 0 1 1.48-1.475h1.475v2.951H2.6zM75 71.218a1.477 1.477 0 0 1-1.476 1.476H4.08a1.477 1.477 0 0 1-1.48-1.476V16.965H75zm0-56.857h-2.952v-2.952h1.476A1.477 1.477 0 0 1 75 12.885v1.476z" class="cls-3" transform="translate(0 -8.805)"/>
                </g>
            </g>
            <g id="Group_4991" transform="translate(5.555 11.111)">
                <g id="Group_4990">
                    <path id="Path_9938" d="M74 26.416H10.107a1.3 1.3 0 1 0 0 2.6H74a1.3 1.3 0 1 0 0-2.6z" class="cls-3" transform="translate(-8.805 -26.416)"/>
                </g>
            </g>
            <g id="Group_4993" transform="translate(15.278 19.444)">
                <g id="Group_4992">
                    <path id="Path_9939" d="M58.85 39.624h-2.778A2.7 2.7 0 0 0 53.51 41.5c-11.17 6.52-23.27 7.624-26.753 7.807a2.686 2.686 0 0 0-2.542 2.686v5.65a2.686 2.686 0 0 0 2.542 2.686c.694.037 1.732.11 3.035.255L33.7 74.966a2.7 2.7 0 0 0 2.6 1.985h5.883a1.3 1.3 0 1 0 0-2.6h-.394l-3.328-12.2a57.631 57.631 0 0 1 15.048 5.99 2.7 2.7 0 0 0 2.563 1.872h2.778a2.694 2.694 0 0 0 2.691-2.691v-25a2.694 2.694 0 0 0-2.691-2.698zM29.77 57.961c-1.224-.131-2.205-.2-2.877-.235a.08.08 0 0 1-.074-.086v-5.65a.08.08 0 0 1 .074-.086c.672-.035 1.653-.1 2.877-.235zm9.32 16.385H36.3a.087.087 0 0 1-.084-.064l-3.624-13.325c.93.145 1.932.322 2.992.537zm19.847-7.031a.087.087 0 0 1-.087.087h-2.778a.087.087 0 0 1-.087-.087V52.037a1.3 1.3 0 0 0-2.6 0v13.038a64.634 64.634 0 0 0-21.007-6.783v-6.954a64.633 64.633 0 0 0 21.007-6.783v1.927a1.3 1.3 0 0 0 2.6 0v-4.167a.087.087 0 0 1 .087-.087h2.778a.087.087 0 0 1 .087.087v25z" class="cls-4" transform="translate(-24.215 -39.624)"/>
                </g>
            </g>
            <g id="Group_4995" transform="translate(55.555 33.333)">
                <g id="Group_4994">
                    <path id="Path_9940" d="M97.689 61.638h-8.333a1.3 1.3 0 0 0 0 2.6h8.333a1.3 1.3 0 1 0 0-2.6z" class="cls-4" transform="translate(-88.054 -61.638)"/>
                </g>
            </g>
            <g id="Group_4997" transform="translate(55.555 25)">
                <g id="Group_4996">
                    <path id="Path_9941" d="M96.076 49.149a1.3 1.3 0 0 0-1.747-.582l-5.555 2.778a1.3 1.3 0 1 0 1.165 2.329l5.554-2.774a1.3 1.3 0 0 0 .583-1.751z" class="cls-4" transform="translate(-88.053 -48.429)"/>
                </g>
            </g>
            <g id="Group_4999" transform="translate(55.555 38.888)">
                <g id="Group_4998">
                    <path id="Path_9942" d="M95.493 73.358l-5.555-2.778a1.3 1.3 0 1 0-1.165 2.329l5.555 2.778a1.3 1.3 0 0 0 1.165-2.329z" class="cls-4" transform="translate(-88.053 -70.443)"/>
                </g>
            </g>
        </g>
    </g>
</svg>
