<svg xmlns="http://www.w3.org/2000/svg" width="27.828" height="24.458" viewBox="0 0 27.828 24.458">
    <defs>
        <style>
            .cls-1{fill:#ffd2d4}
        </style>
    </defs>
    <g id="fax">
        <path id="Path_9407" d="M25.382 40.783h-4.13v-5.707A4.081 4.081 0 0 0 17.175 31H7.392a.815.815 0 0 0-.815.815v8.968H2.446A2.449 2.449 0 0 0 0 43.229v4.892a2.449 2.449 0 0 0 2.446 2.446h4.131v4.076a.815.815 0 0 0 .815.815h13.044a.815.815 0 0 0 .815-.815v-4.076h4.131a2.449 2.449 0 0 0 2.446-2.446v-4.892a2.449 2.449 0 0 0-2.446-2.446zm-5.9-6.522H17.99v-1.49a2.457 2.457 0 0 1 1.491 1.49zm-11.275-1.63h8.153v2.446a.815.815 0 0 0 .815.815h2.446v4.892H8.207zm11.414 21.2H8.207v-4.895h11.414zm6.579-5.71a.816.816 0 0 1-.815.815h-4.133v-.815a.815.815 0 0 0-.815-.815H7.392a.815.815 0 0 0-.815.815v.815H2.446a.816.816 0 0 1-.815-.815v-4.892a.816.816 0 0 1 .815-.815h22.936a.816.816 0 0 1 .815.815z" class="cls-1" transform="translate(0 -31)"/>
        <ellipse id="Ellipse_4" cx="1.164" cy=".776" class="cls-1" rx="1.164" ry=".776" transform="translate(19.398 12.819)"/>
        <circle id="Ellipse_5" cx=".776" cy=".776" r=".776" class="cls-1" transform="translate(16.294 12.819)"/>
        <path id="Path_9412" d="M188.338 391h-6.522a.815.815 0 1 0 0 1.631h6.522a.815.815 0 0 0 0-1.631z" class="cls-1" transform="translate(-171.162 -371.433)"/>
    </g>
</svg>
