<svg xmlns="http://www.w3.org/2000/svg" id="logo" width="87.402" height="78.1" viewBox="0 0 87.402 78.1">
    <defs>
        <style>
            .cls-1{fill:#fff}
        </style>
    </defs>
    <path id="Path_1" d="M328.12 192.624l-30.955-21.014a16.687 16.687 0 0 1 23.508 1.648l4.238-6.651 1.123-3.157a27.537 27.537 0 0 0-3.718-2.706l-3.791 2.918a22.9 22.9 0 0 0-6.785-2.207l-1.35-4.582c-.758-.063-1.525-.1-2.3-.1s-1.542.034-2.3.1l-1.35 4.582a22.9 22.9 0 0 0-6.785 2.207l-3.791-2.918a27.547 27.547 0 0 0-3.718 2.706l1.6 4.5a23.138 23.138 0 0 0-4.192 5.772l-.907 1.89 5.478 3.719.017-.051 26.435 17.945a16.7 16.7 0 0 1-26.574-8.5h-8.051l-2.6 1.783a27.273 27.273 0 0 0 1.419 4.372l4.785-.132a23.137 23.137 0 0 0 4.192 5.772l-1.6 4.5a27.562 27.562 0 0 0 3.718 2.706l3.791-2.918a22.894 22.894 0 0 0 6.785 2.206l1.35 4.582c.759.063 1.525.1 2.3.1s1.542-.034 2.3-.1l1.35-4.582a22.9 22.9 0 0 0 6.785-2.206l3.791 2.918a27.554 27.554 0 0 0 3.718-2.706l-1.6-4.5a23.127 23.127 0 0 0 4.193-5.772l.621-1.309-1.148-.78z" class="cls-1" transform="translate(-264.862 -145.185)"/>
    <path id="Path_2" fill="#d2d2d2" d="M272.309 149.749l-6.018-.166a29.1 29.1 0 0 1-5.273 7.259l2.015 5.662a34.674 34.674 0 0 1-4.676 3.4l-4.768-3.67a28.8 28.8 0 0 1-8.533 2.775l-1.7 5.763c-.954.079-1.918.122-2.893.122s-1.938-.042-2.892-.122l-1.7-5.763a28.793 28.793 0 0 1-8.533-2.775l-4.768 3.67a34.65 34.65 0 0 1-4.676-3.4l2.014-5.662a29.1 29.1 0 0 1-5.272-7.259l-6.018.166a34.273 34.273 0 0 1-1.785-5.5l4.961-3.4a29.206 29.206 0 0 1 0-8.977l-4.961-3.4a34.274 34.274 0 0 1 1.785-5.5l6.018.166a29.1 29.1 0 0 1 5.272-7.259l-2.014-5.662a34.635 34.635 0 0 1 4.676-3.4l4.768 3.669a28.8 28.8 0 0 1 8.533-2.775l1.7-5.763c.954-.079 1.918-.122 2.892-.122s1.939.042 2.893.122l1.7 5.763a28.8 28.8 0 0 1 8.533 2.775l4.768-3.669a34.663 34.663 0 0 1 4.676 3.4l-2.015 5.662a28.993 28.993 0 0 1 4.092 5.177h11.613L265.6 101.8a8.977 8.977 0 0 0-7.774-4.488H223.1a8.977 8.977 0 0 0-7.774 4.488l-17.363 30.073a8.976 8.976 0 0 0 0 8.977l17.363 30.074a8.977 8.977 0 0 0 7.774 4.488h34.726a8.977 8.977 0 0 0 7.774-4.488l17.363-30.073a8.971 8.971 0 0 0 1.151-5.411h-31.285l8.6 5.766h14.191" transform="translate(-196.764 -97.314)"/>
    <path id="Path_3" d="M506.582 229.2a2.645 2.645 0 0 1-1.149-.285l-.211.856a3 3 0 0 0 1.3.278c1.257 0 1.848-.652 1.848-1.42 0-.646-.38-1.067-1.189-1.366-.591-.224-.849-.353-.849-.645 0-.238.218-.442.666-.442a2.18 2.18 0 0 1 .958.218l.231-.836a2.808 2.808 0 0 0-1.169-.231c-1.081 0-1.733.6-1.733 1.379 0 .666.5 1.087 1.257 1.352.55.2.768.36.768.646s-.252.5-.727.5m.938 5.76h.706v.958a1.494 1.494 0 1 1-.435-2.915 2.545 2.545 0 0 1 1.067.2l.217-.829a3.157 3.157 0 0 0-1.271-.224 2.364 2.364 0 0 0-2.616 2.392 2.214 2.214 0 0 0 .645 1.665 2.552 2.552 0 0 0 1.862.618 5.13 5.13 0 0 0 1.529-.258v-2.413h-1.705zm2.588-6.895h1.706v1.916h1.033V225.4h-1.033v1.76h-1.706v-1.76h-1.04v4.58h1.04zm1.943 4.054a2.217 2.217 0 0 0-2.229 2.4 2.135 2.135 0 0 0 2.154 2.331 2.184 2.184 0 0 0 2.25-2.413 2.135 2.135 0 0 0-2.175-2.317m-.02 3.907c-.693 0-1.114-.632-1.114-1.529s.408-1.556 1.108-1.556 1.108.707 1.108 1.529c0 .89-.4 1.556-1.1 1.556m11.92-7.22h1.312l.353 1.175h1.115l-1.42-4.58h-1.364l-1.4 4.58h1.073zm.421-1.747c.075-.265.143-.611.211-.883h.014c.068.272.15.612.231.883l.286.972H524.1zm4.362 7.568v-.02a1.215 1.215 0 0 0 .809-1.128 1.162 1.162 0 0 0-.421-.958 2.337 2.337 0 0 0-1.482-.36 9.1 9.1 0 0 0-1.379.1v4.519h1.026v-1.8h.312c.421.007.618.163.741.734a5.7 5.7 0 0 0 .32 1.067h1.06c-.088-.177-.231-.774-.374-1.291a1.155 1.155 0 0 0-.612-.856m-1.04-.4h-.407v-1.264a2.573 2.573 0 0 1 .469-.034c.475.007.761.218.761.639 0 .4-.305.659-.822.659m-4.828-2.039l-1.4 4.58h1.074l.326-1.175h1.311l.354 1.175h1.115l-1.42-4.58zm.15 2.63l.272-.972c.075-.265.143-.612.21-.883h.014c.068.272.15.612.231.883l.285.972zm-1.276-2.63h-3.52v.87h1.23v3.71h1.039v-3.71h1.251zm8.083-4.679v-.021a1.036 1.036 0 0 0 .754-.979 1 1 0 0 0-.55-.9 2.53 2.53 0 0 0-1.352-.258 8.268 8.268 0 0 0-1.339.095v4.5a7.978 7.978 0 0 0 1.121.068 2.892 2.892 0 0 0 1.8-.415 1.22 1.22 0 0 0 .476-.972 1.146 1.146 0 0 0-.91-1.128m-1.461-1.366a2.814 2.814 0 0 1 .442-.027c.469 0 .734.184.734.53s-.292.564-.836.564h-.34zm.4 3.112a3.248 3.248 0 0 1-.4-.014v-1.291h.353c.517 0 .931.183.931.645 0 .483-.414.659-.884.659m-9.523-1.2h1.706v1.916h1.033V225.4h-1.033v1.76h-1.706v-1.76H518.2v4.58h1.04zm-3.117.741l.353 1.175h1.114l-1.42-4.58h-1.359l-1.4 4.58h1.073l.326-1.175zm-.891-1.747c.075-.265.143-.611.211-.883h.014c.068.272.15.612.231.883l.286.972h-1.013zm1.447 7c-.591-.224-.849-.353-.849-.646 0-.238.218-.442.666-.442a2.179 2.179 0 0 1 .958.218l.231-.836a2.811 2.811 0 0 0-1.169-.231c-1.08 0-1.733.6-1.733 1.38 0 .666.5 1.087 1.257 1.352.55.2.768.36.768.646s-.252.5-.727.5a2.643 2.643 0 0 1-1.148-.285l-.211.856a2.994 2.994 0 0 0 1.3.279c1.257 0 1.848-.652 1.848-1.42 0-.646-.38-1.067-1.189-1.366" class="cls-1" transform="translate(-445.064 -200.374)"/>
</svg>
