<svg xmlns="http://www.w3.org/2000/svg" width="23.631" height="23.631" viewBox="0 0 23.631 23.631">
    <path fill="#fff" d="M20.125 6.088a1.418 1.418 0 1 0 1.418 1.418 1.418 1.418 0 0 0-1.418-1.418zm5.435 2.859a8.968 8.968 0 0 0-.544-2.871 5.837 5.837 0 0 0-1.371-2.091 5.553 5.553 0 0 0-2.091-1.359 8.625 8.625 0 0 0-2.871-.555C17.431 2 17.029 2 13.815 2s-3.615 0-4.868.071a8.625 8.625 0 0 0-2.871.555 5.648 5.648 0 0 0-2.091 1.359 5.553 5.553 0 0 0-1.359 2.091 8.625 8.625 0 0 0-.555 2.871C2 10.2 2 10.6 2 13.815s0 3.615.071 4.868a8.625 8.625 0 0 0 .555 2.871 5.553 5.553 0 0 0 1.359 2.091A5.648 5.648 0 0 0 6.076 25a8.625 8.625 0 0 0 2.871.555c1.252.071 1.654.071 4.868.071s3.615 0 4.868-.071A8.625 8.625 0 0 0 21.554 25a5.553 5.553 0 0 0 2.091-1.359 5.73 5.73 0 0 0 1.371-2.091 8.968 8.968 0 0 0 .544-2.871c0-1.252.071-1.654.071-4.868s0-3.611-.071-4.864zm-2.127 9.594a6.628 6.628 0 0 1-.4 2.2 3.615 3.615 0 0 1-.886 1.359 3.769 3.769 0 0 1-1.359.886 6.628 6.628 0 0 1-2.2.4c-1.182.059-1.619.071-4.726.071s-3.545 0-4.726-.071a6.77 6.77 0 0 1-2.292-.354 3.864 3.864 0 0 1-1.3-.886 3.545 3.545 0 0 1-.874-1.359 6.546 6.546 0 0 1-.47-2.246c0-1.182-.071-1.619-.071-4.726s0-3.545.071-4.726a6.546 6.546 0 0 1 .414-2.245 3.545 3.545 0 0 1 .933-1.3 3.71 3.71 0 0 1 1.3-.945 6.77 6.77 0 0 1 2.245-.4c1.182 0 1.619-.071 4.726-.071s3.545 0 4.726.071a6.628 6.628 0 0 1 2.2.4 3.615 3.615 0 0 1 1.406.945 3.616 3.616 0 0 1 .886 1.3 6.628 6.628 0 0 1 .4 2.245c.059 1.182.071 1.619.071 4.726s-.015 3.545-.074 4.726zM13.815 7.754a6.049 6.049 0 1 0 4.3 1.768 6.061 6.061 0 0 0-4.3-1.768zm0 10a3.935 3.935 0 1 1 3.935-3.935 3.935 3.935 0 0 1-3.935 3.935z" transform="translate(-2 -2)"/>
</svg>
