<svg xmlns="http://www.w3.org/2000/svg" width="26.418" height="23.63" viewBox="0 0 26.418 23.63">
    <path fill="#fff" d="M21.267 33.628a1.046 1.046 0 0 1-.587-.18l-6.643-4.506-3.563 2.564a1.046 1.046 0 0 1-1.622-.582l-1.788-6.78L.672 21.7a1.046 1.046 0 0 1-.013-1.949l24.3-9.671a1.046 1.046 0 0 1 .349-.08 1.091 1.091 0 0 1 .126 0 1.043 1.043 0 0 1 .67.3c.019.019.038.038.055.059a1.042 1.042 0 0 1 .256.612 1.061 1.061 0 0 1 0 .167 1.016 1.016 0 0 1-.017.119l-4.1 21.525a1.046 1.046 0 0 1-1.027.85zm-6.646-6.818l5.917 4.013 3.192-16.748L12.2 25.169l2.392 1.623zM9.7 25.918l.792 3 1.707-1.228-2.24-1.515a1.043 1.043 0 0 1-.259-.257zM3.923 20.7l4.389 1.678a1.046 1.046 0 0 1 .638.71l.556 2.112a1.046 1.046 0 0 1 .315-.645l10.986-10.57z" transform="translate(0 -9.997)"/>
</svg>
