<svg xmlns="http://www.w3.org/2000/svg" width="23.631" height="23.631" viewBox="0 0 23.631 23.631">
    <path fill="#fff" d="M22.764 16.255a11.78 11.78 0 1 0-.045.11.993.993 0 0 0 .045-.11zm-1.03-4.44a9.869 9.869 0 0 1-.53 3.191h-5.172l1.391-4.281v-.011l1.786-5.5a9.877 9.877 0 0 1 2.525 6.601zM9.593 15.006L8.22 10.78l3.6-2.612 3.6 2.612-1.373 4.227zm8.08-11.188l-1.646 5.065-3.642-2.646-.008-.006-4.71-3.422a9.889 9.889 0 0 1 10.006 1.009zm-11.781.046L10.2 7 6.559 9.642h-.007l-4.585 3.336a9.88 9.88 0 0 1 3.925-9.114zm-3.47 11.129l4.184-3.04L8 16.233v.01l1.711 5.264a9.953 9.953 0 0 1-7.289-6.514zm9.393 6.741h-.036L10.21 16.9h10.115a9.922 9.922 0 0 1-8.51 4.834z"/>
</svg>
