<svg xmlns="http://www.w3.org/2000/svg" width="23.631" height="23.631" viewBox="0 0 23.631 23.631">
    <path fill="#fff" d="M11.815 0A11.815 11.815 0 0 0 3.2 19.9a.949.949 0 1 0 1.38-1.3 9.883 9.883 0 1 1 4.4 2.723l.97-3.792a7.8 7.8 0 0 0 1.852.221 6.973 6.973 0 0 0 7.227-6.669A6.973 6.973 0 0 0 11.8 4.414a6.973 6.973 0 0 0-7.227 6.669 6.283 6.283 0 0 0 1.214 3.7.949.949 0 1 0 1.537-1.113 4.4 4.4 0 0 1-.854-2.59 5.08 5.08 0 0 1 5.33-4.769 5.08 5.08 0 0 1 5.33 4.772 5.08 5.08 0 0 1-5.33 4.772 5.907 5.907 0 0 1-1.382-.162l1.328-5.19a.949.949 0 0 0-1.838-.47L6.925 21.7a.949.949 0 0 0 .575 1.117A11.817 11.817 0 1 0 11.815 0z"/>
</svg>
