<svg xmlns="http://www.w3.org/2000/svg" width="20.331" height="24.849" viewBox="0 0 20.331 24.849">
    <path fill="#9b1c20" d="M1633.666-387.582a33.414 33.414 0 0 1-5.082-4.376 22.779 22.779 0 0 1-3.494-4.677 11.8 11.8 0 0 1-1.588-5.63 10.177 10.177 0 0 1 10.166-10.165 10.177 10.177 0 0 1 10.166 10.165 11.8 11.8 0 0 1-1.588 5.63 22.782 22.782 0 0 1-3.494 4.677 33.419 33.419 0 0 1-5.082 4.376zm-.166-18.913a4 4 0 0 0-4 4 4 4 0 0 0 4 4 4 4 0 0 0 4-4 4 4 0 0 0-4-4z" transform="translate(-1623.5 412.431)"/>
</svg>
