<svg xmlns="http://www.w3.org/2000/svg" width="68.49" height="61.201" viewBox="0 0 68.49 61.201">
    <g>
        <path fill="#9b1c20" d="M318 184.867L293.743 168.4a13.077 13.077 0 0 1 18.421 1.292l3.321-5.212.88-2.474a21.577 21.577 0 0 0-2.914-2.121l-2.971 2.286a17.941 17.941 0 0 0-5.317-1.729l-1.058-3.591c-.594-.049-1.2-.076-1.8-.076s-1.208.026-1.8.076l-1.058 3.591a17.942 17.942 0 0 0-5.317 1.729l-2.971-2.286a21.584 21.584 0 0 0-2.914 2.121l1.255 3.528a18.131 18.131 0 0 0-3.285 4.523l-.711 1.481 4.293 2.914.013-.04 20.715 14.062a13.083 13.083 0 0 1-20.824-6.664h-6.311l-2.039 1.4a21.367 21.367 0 0 0 1.112 3.426l3.75-.1a18.13 18.13 0 0 0 3.285 4.523l-1.255 3.528a21.6 21.6 0 0 0 2.914 2.121l2.971-2.286a17.94 17.94 0 0 0 5.317 1.729l1.058 3.591c.594.049 1.2.076 1.8.076s1.208-.026 1.8-.076l1.058-3.591a17.942 17.942 0 0 0 5.317-1.729l2.971 2.286a21.593 21.593 0 0 0 2.914-2.121l-1.255-3.528a18.12 18.12 0 0 0 3.285-4.523l.487-1.026-.9-.611z" transform="translate(145.903 72.159) translate(-414.332 -219.852)"/>
        <path fill="#042d47" d="M255.963 138.4l-4.716-.13a22.8 22.8 0 0 1-4.132 5.688l1.579 4.437a27.172 27.172 0 0 1-3.664 2.667l-3.736-2.876a22.567 22.567 0 0 1-6.687 2.175l-1.33 4.516c-.747.062-1.5.1-2.267.1s-1.519-.033-2.267-.1l-1.33-4.516a22.563 22.563 0 0 1-6.687-2.175l-3.736 2.876a27.155 27.155 0 0 1-3.664-2.667l1.579-4.437a22.8 22.8 0 0 1-4.132-5.688l-4.716.13a26.858 26.858 0 0 1-1.4-4.308l3.887-2.663a22.886 22.886 0 0 1 0-7.035l-3.887-2.663a26.858 26.858 0 0 1 1.4-4.308l4.716.13a22.8 22.8 0 0 1 4.132-5.688l-1.579-4.437a27.141 27.141 0 0 1 3.664-2.667l3.736 2.875a22.566 22.566 0 0 1 6.687-2.174l1.33-4.516c.747-.062 1.5-.1 2.267-.1s1.519.033 2.267.1l1.33 4.516a22.57 22.57 0 0 1 6.687 2.174l3.736-2.875a27.163 27.163 0 0 1 3.664 2.667l-1.579 4.437a22.719 22.719 0 0 1 3.207 4.057h9.1l-8.714-15.094a7.035 7.035 0 0 0-6.092-3.517H217.4a7.035 7.035 0 0 0-6.092 3.517L197.706 124.4a7.034 7.034 0 0 0 0 7.034L211.312 155a7.035 7.035 0 0 0 6.092 3.517h27.212a7.035 7.035 0 0 0 6.093-3.517l13.606-23.566a7.03 7.03 0 0 0 .9-4.24H240.7l6.74 4.518h11.12" transform="translate(145.903 72.159) translate(-342.666 -169.473)"/>
        <path d="M506.28 228.364a2.073 2.073 0 0 1-.9-.224l-.165.671a2.35 2.35 0 0 0 1.017.218c.985 0 1.448-.511 1.448-1.113 0-.506-.3-.836-.932-1.07-.463-.176-.666-.277-.666-.506 0-.187.17-.346.522-.346a1.708 1.708 0 0 1 .751.171l.181-.655a2.2 2.2 0 0 0-.916-.181c-.847 0-1.358.468-1.358 1.081 0 .522.389.852.985 1.06.431.154.6.282.6.506s-.2.389-.57.389m.735 4.514h.553v.751a1.17 1.17 0 1 1-.341-2.285 1.994 1.994 0 0 1 .836.154l.17-.65a2.475 2.475 0 0 0-1-.176 1.852 1.852 0 0 0-2.05 1.875 1.735 1.735 0 0 0 .506 1.3 2 2 0 0 0 1.459.485 4.02 4.02 0 0 0 1.2-.2v-1.891h-1.336zm2.028-5.4h1.337v1.5h.809v-3.589h-.809v1.379h-1.337v-1.379h-.815v3.589h.815zm1.523 3.177a1.737 1.737 0 0 0-1.746 1.88 1.673 1.673 0 0 0 1.688 1.827 1.712 1.712 0 0 0 1.763-1.89 1.673 1.673 0 0 0-1.7-1.816m-.016 3.062c-.543 0-.873-.5-.873-1.2s.319-1.219.868-1.219.868.554.868 1.2c0 .7-.314 1.219-.863 1.219m9.341-5.658h1.028l.277.921h.873l-1.113-3.589h-1.068l-1.1 3.589h.841zm.33-1.369c.059-.207.112-.479.165-.692h.011c.053.213.117.48.181.692l.224.762h-.793zm3.418 5.93v-.022a.952.952 0 0 0 .634-.884.911.911 0 0 0-.33-.751 1.832 1.832 0 0 0-1.161-.282 7.126 7.126 0 0 0-1.081.075v3.542h.8v-1.411h.245c.33.005.484.128.58.575a4.462 4.462 0 0 0 .251.836h.831c-.069-.138-.181-.607-.293-1.012a.9.9 0 0 0-.479-.671m-.815-.314h-.323v-.991a2.017 2.017 0 0 1 .367-.027c.373.006.6.17.6.5 0 .314-.239.517-.644.517m-3.779-1.592l-1.1 3.589h.841l.256-.921h1.028l.277.921h.873l-1.113-3.589zm.117 2.061l.213-.761c.059-.207.112-.479.165-.692h.011c.053.213.117.48.181.692l.224.761zm-1-2.061H515.4v.682h.964v2.908h.814v-2.907h.98zm6.334-3.667v-.01a.812.812 0 0 0 .591-.767.781.781 0 0 0-.431-.7 1.983 1.983 0 0 0-1.06-.2 6.48 6.48 0 0 0-1.049.074v3.525a6.247 6.247 0 0 0 .879.053 2.266 2.266 0 0 0 1.411-.325.956.956 0 0 0 .373-.761.9.9 0 0 0-.713-.884m-1.145-1.07a2.208 2.208 0 0 1 .346-.021c.367 0 .575.144.575.416s-.229.442-.655.442h-.266zm.314 2.439a2.549 2.549 0 0 1-.314-.011v-1.016h.277c.4 0 .73.144.73.506 0 .378-.325.517-.692.517m-7.463-.937h1.336v1.5h.809v-3.589h-.809v1.379H516.2v-1.379h-.815v3.589h.815zm-2.443.58l.277.921h.873l-1.113-3.589h-1.065l-1.1 3.589h.841l.256-.921zm-.7-1.369c.059-.207.112-.479.165-.692h.011c.053.213.117.48.181.692l.224.762h-.793zm1.134 5.483c-.463-.176-.666-.277-.666-.506 0-.186.17-.346.522-.346a1.707 1.707 0 0 1 .751.171l.181-.655a2.2 2.2 0 0 0-.916-.181c-.846 0-1.358.469-1.358 1.081 0 .522.389.852.985 1.06.431.154.6.282.6.506s-.2.389-.57.389a2.072 2.072 0 0 1-.9-.224l-.165.671a2.347 2.347 0 0 0 1.017.218c.985 0 1.448-.511 1.448-1.113 0-.506-.3-.836-.932-1.071" transform="translate(145.903 72.159) translate(-603.976 -277.933)"/>
    </g>
</svg>
