<svg xmlns="http://www.w3.org/2000/svg" width="51" height="51" viewBox="0 0 51 51">
    <defs>
        <clipPath id="clip-path">
            <path id="Rectangle_571" fill="#042d47" stroke="#042d47" d="M0 0H51V51H0z" transform="translate(-.474 -.046)"/>
        </clipPath>
        <style>
            .cls-4{fill:#042d47}.cls-3{fill:#9b1c20}.cls-3,.cls-4{stroke:#707070;stroke-width:.116px}
        </style>
    </defs>
    <g id="Mask_Group_2" clip-path="url(#clip-path)" transform="translate(.474 .046)">
        <g id="_002-manufacture" transform="translate(0 1.646)">
            <path id="Path_541" d="M.823 20.437h4.565a12.238 12.238 0 0 0 1.159 2.788l-3.231 3.23a.823.823 0 0 0 0 1.164l3.491 3.492a.824.824 0 0 0 1.164 0l3.229-3.232a12.23 12.23 0 0 0 2.787 1.159V33.6a.823.823 0 0 0 .823.823h4.937a.823.823 0 0 0 .823-.823v-4.562a12.23 12.23 0 0 0 2.787-1.159l3.231 3.232a.847.847 0 0 0 1.164 0l3.492-3.492a.823.823 0 0 0 0-1.164l-3.232-3.23a12.238 12.238 0 0 0 1.159-2.788h4.565a.823.823 0 0 0 .823-.823v-4.938a.823.823 0 0 0-.823-.823h-4.563a12.242 12.242 0 0 0-1.159-2.788l3.231-3.23a.823.823 0 0 0 0-1.164l-3.49-3.491a.823.823 0 0 0-1.164 0L23.36 6.412a12.265 12.265 0 0 0-2.787-1.159V.687a.823.823 0 0 0-.823-.823h-4.938a.823.823 0 0 0-.823.823v4.566A12.265 12.265 0 0 0 11.2 6.412L7.97 3.18a.847.847 0 0 0-1.164 0L3.315 6.672a.823.823 0 0 0 0 1.164l3.232 3.23a12.242 12.242 0 0 0-1.159 2.788H.823a.823.823 0 0 0-.823.822v4.937a.823.823 0 0 0 .823.823zm.823-4.937h4.386a.823.823 0 0 0 .8-.647 10.587 10.587 0 0 1 1.442-3.468.823.823 0 0 0-.111-1.026L5.061 7.253l2.328-2.328 3.1 3.105a.823.823 0 0 0 1.027.112A10.6 10.6 0 0 1 14.988 6.7a.824.824 0 0 0 .647-.8V1.51h3.292V5.9a.824.824 0 0 0 .647.8 10.6 10.6 0 0 1 3.468 1.442.823.823 0 0 0 1.027-.112l3.1-3.105L29.5 7.253l-3.1 3.1a.823.823 0 0 0-.111 1.027 10.584 10.584 0 0 1 1.441 3.468.824.824 0 0 0 .8.647h4.387v3.292h-4.388a.823.823 0 0 0-.8.647 10.574 10.574 0 0 1-1.441 3.467.823.823 0 0 0 .111 1.026l3.105 3.1-2.328 2.329-3.1-3.106a.824.824 0 0 0-1.027-.111 10.579 10.579 0 0 1-3.467 1.442.823.823 0 0 0-.648.8v4.399h-3.299v-4.386a.823.823 0 0 0-.648-.8 10.579 10.579 0 0 1-3.467-1.442.824.824 0 0 0-1.027.111l-3.1 3.106-2.332-2.332 3.1-3.1a.823.823 0 0 0 .111-1.027 10.59 10.59 0 0 1-1.442-3.468.822.822 0 0 0-.8-.646H1.646zm0 0" class="cls-3" transform="translate(0 .136)"/>
            <path id="Path_542" d="M21.68 28.127a6.583 6.583 0 1 0-6.58-6.583 6.583 6.583 0 0 0 6.58 6.583zm0-11.521a4.937 4.937 0 1 1-4.937 4.937 4.938 4.938 0 0 1 4.937-4.936zm0 0" class="cls-3" transform="translate(-4.399 -4.264)"/>
            <path id="Path_543" d="M20.665 29.581a9.052 9.052 0 1 0-9.052-9.052 9.052 9.052 0 0 0 9.052 9.052zm0-16.458a7.406 7.406 0 1 1-7.406 7.406 7.406 7.406 0 0 1 7.406-7.406zm0 0" class="cls-4" transform="translate(-3.384 -3.248)"/>
            <path id="Path_544" d="M46.9 47.193v-6.584a.823.823 0 0 0-.823-.823h-1.641V33.2a.823.823 0 0 0-.823-.823h-7.406a.823.823 0 0 0-.823.823v6.583H31.27a.823.823 0 0 0-.823.823v6.583H4.114A4.12 4.12 0 0 0 0 51.307v1.646a4.119 4.119 0 0 0 4.114 4.114H46.9a4.119 4.119 0 0 0 4.114-4.114v-1.646a4.12 4.12 0 0 0-4.114-4.114zm-1.646 0H39.5v-5.76h5.76zM37.03 34.026h5.76v5.76h-5.76zm-4.937 7.406h5.76v5.76h-5.76zm17.281 11.521a2.469 2.469 0 0 1-2.474 2.468H4.114a2.469 2.469 0 0 1-2.469-2.469v-1.645a2.469 2.469 0 0 1 2.469-2.469H46.9a2.469 2.469 0 0 1 2.469 2.469zm0 0" class="cls-4" transform="translate(0 -9.339)"/>
            <path id="Path_545" d="M34.985 56.768a2.469 2.469 0 1 0 2.469 2.469 2.469 2.469 0 0 0-2.469-2.469zm0 3.292a.823.823 0 1 1 .823-.823.823.823 0 0 1-.823.822zm0 0" class="cls-4" transform="translate(-9.475 -16.446)"/>
            <path id="Path_546" d="M23.372 56.768a2.469 2.469 0 1 0 2.469 2.469 2.469 2.469 0 0 0-2.469-2.469zm0 3.292a.823.823 0 1 1 .823-.823.823.823 0 0 1-.823.822zm0 0" class="cls-4" transform="translate(-6.091 -16.446)"/>
            <path id="Path_547" d="M46.6 56.768a2.469 2.469 0 1 0 2.469 2.469 2.469 2.469 0 0 0-2.469-2.469zm0 3.292a.823.823 0 1 1 .823-.823.823.823 0 0 1-.823.822zm0 0" class="cls-4" transform="translate(-12.859 -16.446)"/>
            <path id="Path_548" d="M11.759 56.768a2.469 2.469 0 1 0 2.469 2.469 2.469 2.469 0 0 0-2.469-2.469zm0 3.292a.823.823 0 1 1 .823-.823.823.823 0 0 1-.823.822zm0 0" class="cls-4" transform="translate(-2.707 -16.446)"/>
            <path id="Path_549" d="M58.211 56.768a2.469 2.469 0 1 0 2.469 2.469 2.469 2.469 0 0 0-2.469-2.469zm0 3.292a.823.823 0 1 1 .823-.823.823.823 0 0 1-.823.822zm0 0" class="cls-4" transform="translate(-16.243 -16.446)"/>
        </g>
    </g>
</svg>
