<svg xmlns="http://www.w3.org/2000/svg" width="51" height="51" viewBox="0 0 51 51">
    <defs>
        <clipPath id="clip-path">
            <path id="Rectangle_571" fill="#042d47" stroke="#042d47" d="M0 0H51V51H0z" transform="translate(.159 -.046)"/>
        </clipPath>
        <style>
            .cls-3{fill:#042d47;stroke:#042d47;stroke-width:.116px}
        </style>
    </defs>
    <g id="Mask_Group_3" clip-path="url(#clip-path)" transform="translate(-.159 .046)">
        <g id="_003-gear" transform="translate(0 .937)">
            <g id="Group_4813">
                <g id="Group_4812">
                    <g id="Group_4893" transform="translate(12.729)">
                        <path id="Path_9402" d="M.891 22.139h4.943a13.251 13.251 0 0 0 1.255 3.019l-3.5 3.5a.892.892 0 0 0 0 1.261L7.37 33.7a.892.892 0 0 0 1.26 0l3.5-3.5a13.242 13.242 0 0 0 3.018 1.255V36.4a.891.891 0 0 0 .891.891h5.346a.891.891 0 0 0 .891-.891v-4.948a13.242 13.242 0 0 0 3.017-1.252l3.5 3.5a.917.917 0 0 0 1.26 0l3.78-3.781a.892.892 0 0 0 0-1.261l-3.5-3.5a13.251 13.251 0 0 0 1.255-3.019h4.943a.891.891 0 0 0 .891-.891V15.9a.891.891 0 0 0-.891-.891h-4.943a13.255 13.255 0 0 0-1.255-3.019l3.5-3.5a.892.892 0 0 0 0-1.261l-3.78-3.781a.891.891 0 0 0-1.26 0l-3.5 3.5A13.28 13.28 0 0 0 22.275 5.7V.755a.891.891 0 0 0-.891-.891h-5.346a.891.891 0 0 0-.891.891V5.7a13.28 13.28 0 0 0-3.018 1.255l-3.5-3.5a.917.917 0 0 0-1.26 0L3.59 7.235a.892.892 0 0 0 0 1.261l3.5 3.5a13.255 13.255 0 0 0-1.255 3.019H.891A.891.891 0 0 0 0 15.9v5.346a.891.891 0 0 0 .891.891zm.891-5.346h4.749a.891.891 0 0 0 .87-.7 11.463 11.463 0 0 1 1.561-3.755.891.891 0 0 0-.12-1.111L5.48 7.865 8 5.344l3.362 3.362a.891.891 0 0 0 1.112.121 11.481 11.481 0 0 1 3.755-1.561.892.892 0 0 0 .7-.871V1.646h3.564V6.4a.892.892 0 0 0 .7.871 11.481 11.481 0 0 1 3.755 1.561.891.891 0 0 0 1.112-.121l3.362-3.362 2.52 2.521-3.362 3.356a.891.891 0 0 0-.12 1.112 11.46 11.46 0 0 1 1.56 3.755.892.892 0 0 0 .87.7h4.75v3.564h-4.75a.891.891 0 0 0-.87.7 11.449 11.449 0 0 1-1.56 3.754.892.892 0 0 0 .12 1.111l3.362 3.362-2.521 2.522-3.361-3.362a.892.892 0 0 0-1.112-.12 11.455 11.455 0 0 1-3.754 1.561.891.891 0 0 0-.7.87V35.5h-3.565v-4.745a.891.891 0 0 0-.7-.87 11.455 11.455 0 0 1-3.754-1.561.892.892 0 0 0-1.112.12L8 31.807l-2.52-2.521 3.362-3.362a.891.891 0 0 0 .12-1.112A11.467 11.467 0 0 1 7.4 21.057a.891.891 0 0 0-.87-.7H1.782zm0 0" class="cls-3" transform="translate(0 .136)"/>
                        <path id="Path_9403" d="M22.225 29.217a7.128 7.128 0 1 0-7.125-7.128 7.128 7.128 0 0 0 7.125 7.128zm0-12.474a5.346 5.346 0 1 1-5.346 5.346 5.346 5.346 0 0 1 5.346-5.346zm0 0" class="cls-3" transform="translate(-3.514 -3.378)"/>
                    </g>
                    <path id="Path_9405" fill="#fff" d="M15.606 40.036s2.835-.36 3.375-1.98 1.665-8.594 1.44-9.134 4.32-4.275 4.949-.27a39.921 39.921 0 0 1 .315 8.1h10.934a2.471 2.471 0 0 1 2.2 2.7 2.388 2.388 0 0 1-2.2 2.475s2.52.675 2.2 2.835a3.64 3.64 0 0 1-1.75 2.838l-21.1-.225z" transform="translate(-4.548 -8.753)"/>
                    <path id="Path_9406" fill="#9b1c20" d="M31.954 35.435l-10.392.016a.806.806 0 1 0 0 1.611l10.392-.016a1.344 1.344 0 0 1 1.346 1.343v1.074a1.344 1.344 0 0 1-1.343 1.343h-7.521a.806.806 0 1 0 0 1.611h7.519a1.344 1.344 0 0 1 1.345 1.342v1.074a1.344 1.344 0 0 1-1.343 1.343h-7.521a.806.806 0 1 0 0 1.611h7.519A1.344 1.344 0 0 1 33.3 49.13v1.07a1.344 1.344 0 0 1-1.343 1.343h-7.521a.806.806 0 0 0 0 1.611h7.519A1.344 1.344 0 0 1 33.3 54.5v1.074a1.344 1.344 0 0 1-1.343 1.343H17.362a2.844 2.844 0 0 1-2.018-.833 4.467 4.467 0 0 0-3.168-1.315H10.2v-8.861a.806.806 0 1 0-1.611 0v10.74a.269.269 0 0 1-.269.269H5.907v-11.01a.806.806 0 0 0-1.611 0v11.01H1.88a.269.269 0 0 1-.269-.269V38.389a.269.269 0 0 1 .269-.269h6.444a.269.269 0 0 1 .269.269v4.3a.806.806 0 1 0 1.611 0v-2.42h1.942a2.95 2.95 0 0 0 2.8-2.02l.3-.9a27.225 27.225 0 0 0 1.4-8.627 1.344 1.344 0 0 1 1.343-1.343 2.417 2.417 0 0 1 2.419 2.421v8.592a.806.806 0 1 0 1.611 0V29.8a4.028 4.028 0 0 0-4.028-4.028 2.957 2.957 0 0 0-2.954 2.954 25.618 25.618 0 0 1-1.317 8.117l-.3.9a1.341 1.341 0 0 1-1.274.918H10.2v-.269a1.882 1.882 0 0 0-1.88-1.88H1.88A1.882 1.882 0 0 0 0 38.389v18.26a1.882 1.882 0 0 0 1.88 1.88h6.444a1.882 1.882 0 0 0 1.88-1.88v-.269h1.972a2.866 2.866 0 0 1 2.031.846 4.445 4.445 0 0 0 3.155 1.3h14.592a2.957 2.957 0 0 0 2.954-2.954V54.5a2.946 2.946 0 0 0-.928-2.148 2.946 2.946 0 0 0 .928-2.148V49.13a2.946 2.946 0 0 0-.928-2.148 2.946 2.946 0 0 0 .928-2.148v-1.075a2.946 2.946 0 0 0-.928-2.148 2.946 2.946 0 0 0 .928-2.148v-1.074a2.957 2.957 0 0 0-2.954-2.954z" transform="translate(0 -8.446)"/>
                </g>
            </g>
        </g>
    </g>
</svg>
